<mxfile host="app.diagrams.net" agent="Mozilla/5.0 (Macintosh; Intel Mac OS X 10_15_7) AppleWebKit/605.1.15 (KHTML, like Gecko) Version/18.3.1 Safari/605.1.15" version="26.0.16">
  <diagram name="Page-1" id="RbjAJPvpRKeQg16iyf8t">
    <mxGraphModel dx="1298" dy="769" grid="0" gridSize="10" guides="1" tooltips="1" connect="1" arrows="1" fold="1" page="0" pageScale="1" pageWidth="1100" pageHeight="850" math="0" shadow="0">
      <root>
        <mxCell id="0" />
        <mxCell id="1" parent="0" />
        <mxCell id="D6d2pKM_3EtfKhFF-r0B-7" value="Raspberry Group 1" style="rounded=0;whiteSpace=wrap;html=1;labelPosition=center;verticalLabelPosition=top;align=center;verticalAlign=bottom;fillColor=#dae8fc;strokeColor=#6c8ebf;dashed=1;" vertex="1" parent="1">
          <mxGeometry x="130" y="491" width="370" height="230" as="geometry" />
        </mxCell>
        <mxCell id="D6d2pKM_3EtfKhFF-r0B-8" value="Raspberry Group 2" style="rounded=0;whiteSpace=wrap;html=1;labelPosition=center;verticalLabelPosition=top;align=center;verticalAlign=bottom;fillColor=#d5e8d4;strokeColor=#82b366;dashed=1;" vertex="1" parent="1">
          <mxGeometry x="540" y="491" width="380" height="230" as="geometry" />
        </mxCell>
        <mxCell id="D6d2pKM_3EtfKhFF-r0B-9" value="PDD Slave 1" style="rounded=1;whiteSpace=wrap;html=1;fillColor=#f5f5f5;fontColor=#333333;strokeColor=#666666;" vertex="1" parent="1">
          <mxGeometry x="220" y="641" width="80" height="60" as="geometry" />
        </mxCell>
        <mxCell id="D6d2pKM_3EtfKhFF-r0B-10" value="PDD Slave 2" style="rounded=1;whiteSpace=wrap;html=1;fillColor=#f5f5f5;fontColor=#333333;strokeColor=#666666;" vertex="1" parent="1">
          <mxGeometry x="330" y="641" width="80" height="60" as="geometry" />
        </mxCell>
        <mxCell id="D6d2pKM_3EtfKhFF-r0B-11" value="PDD Master" style="rounded=1;whiteSpace=wrap;html=1;fillColor=#e1d5e7;strokeColor=#9673a6;" vertex="1" parent="1">
          <mxGeometry x="270" y="551" width="80" height="60" as="geometry" />
        </mxCell>
        <mxCell id="D6d2pKM_3EtfKhFF-r0B-12" value="PDD Slave 1" style="rounded=1;whiteSpace=wrap;html=1;fillColor=#f5f5f5;fontColor=#333333;strokeColor=#666666;" vertex="1" parent="1">
          <mxGeometry x="630" y="641" width="80" height="60" as="geometry" />
        </mxCell>
        <mxCell id="D6d2pKM_3EtfKhFF-r0B-13" value="PDD Slave 2" style="rounded=1;whiteSpace=wrap;html=1;fillColor=#f5f5f5;fontColor=#333333;strokeColor=#666666;" vertex="1" parent="1">
          <mxGeometry x="740" y="641" width="80" height="60" as="geometry" />
        </mxCell>
        <mxCell id="D6d2pKM_3EtfKhFF-r0B-14" value="PDD Master" style="rounded=1;whiteSpace=wrap;html=1;fillColor=#e1d5e7;strokeColor=#9673a6;" vertex="1" parent="1">
          <mxGeometry x="680" y="551" width="80" height="60" as="geometry" />
        </mxCell>
        <mxCell id="D6d2pKM_3EtfKhFF-r0B-15" value="Scenario 1" style="rounded=0;whiteSpace=wrap;html=1;labelPosition=center;verticalLabelPosition=top;align=center;verticalAlign=bottom;" vertex="1" parent="1">
          <mxGeometry x="70" y="30" width="320" height="420" as="geometry" />
        </mxCell>
        <mxCell id="D6d2pKM_3EtfKhFF-r0B-20" value="&lt;h1 style=&quot;margin-top: 0px;&quot;&gt;All videos to all devices&lt;/h1&gt;&lt;p&gt;One folder manages videos and all videos are pushed to all devices.&lt;/p&gt;&lt;p&gt;Meaning all devices have exactly same content.&lt;/p&gt;" style="text;html=1;whiteSpace=wrap;overflow=hidden;rounded=0;" vertex="1" parent="1">
          <mxGeometry x="80" y="60" width="300" height="120" as="geometry" />
        </mxCell>
        <mxCell id="D6d2pKM_3EtfKhFF-r0B-21" value="" style="group" vertex="1" connectable="0" parent="1">
          <mxGeometry x="140" y="210" width="160" height="110" as="geometry" />
        </mxCell>
        <mxCell id="D6d2pKM_3EtfKhFF-r0B-17" value="Video Collection" style="fillColor=#ffffff;strokeColor=#4D4D4D;verticalAlign=top;fontStyle=1;fontColor=#1A1A1A;rounded=0;whiteSpace=wrap;align=center;gradientColor=none;" vertex="1" parent="D6d2pKM_3EtfKhFF-r0B-21">
          <mxGeometry width="160" height="110" as="geometry" />
        </mxCell>
        <mxCell id="D6d2pKM_3EtfKhFF-r0B-18" value="• video_file1.mp4&#xa;• video_file2.mp4&#xa;• video_file3.mp4" style="pointerEvents=1;shadow=0;dashed=0;strokeColor=#4D4D4D;fillColor=none;labelPosition=center;verticalLabelPosition=bottom;verticalAlign=top;outlineConnect=0;align=left;shape=mxgraph.office.concepts.folder;labelBackgroundColor=none;flipH=1;snapToPoint=0;labelPadding=0;overflow=visible;perimeter=rectanglePerimeter;collapsible=0;container=0;backgroundOutline=0;fontSize=12;fontColor=#1A1A1A;" vertex="1" parent="D6d2pKM_3EtfKhFF-r0B-21">
          <mxGeometry x="15" y="40" width="20" height="15" as="geometry" />
        </mxCell>
        <mxCell id="D6d2pKM_3EtfKhFF-r0B-22" value="Scenario 2" style="rounded=0;whiteSpace=wrap;html=1;labelPosition=center;verticalLabelPosition=top;align=center;verticalAlign=bottom;" vertex="1" parent="1">
          <mxGeometry x="420" y="30" width="320" height="420" as="geometry" />
        </mxCell>
        <mxCell id="D6d2pKM_3EtfKhFF-r0B-23" value="&lt;h1 style=&quot;margin-top: 0px;&quot;&gt;Grouped Setup&lt;/h1&gt;&lt;p&gt;One folder manages videos and all videos are pushed to all devices.&lt;/p&gt;&lt;p&gt;Meaning all devices have exactly same content.&lt;/p&gt;" style="text;html=1;whiteSpace=wrap;overflow=hidden;rounded=0;" vertex="1" parent="1">
          <mxGeometry x="430" y="60" width="300" height="120" as="geometry" />
        </mxCell>
        <mxCell id="D6d2pKM_3EtfKhFF-r0B-28" value="Scenario 3" style="rounded=0;whiteSpace=wrap;html=1;labelPosition=center;verticalLabelPosition=top;align=center;verticalAlign=bottom;" vertex="1" parent="1">
          <mxGeometry x="770" y="30" width="320" height="420" as="geometry" />
        </mxCell>
        <mxCell id="D6d2pKM_3EtfKhFF-r0B-29" value="&lt;h1 style=&quot;margin-top: 0px;&quot;&gt;Individual&lt;/h1&gt;&lt;p&gt;Separate folders for each device.&lt;/p&gt;&lt;p&gt;If devices need same content, file should be copied to each folder.&lt;/p&gt;" style="text;html=1;whiteSpace=wrap;overflow=hidden;rounded=0;" vertex="1" parent="1">
          <mxGeometry x="780" y="60" width="300" height="120" as="geometry" />
        </mxCell>
        <mxCell id="D6d2pKM_3EtfKhFF-r0B-30" value="Video Collection" style="fillColor=#ffffff;strokeColor=#4D4D4D;verticalAlign=top;fontStyle=1;fontColor=#1A1A1A;rounded=0;whiteSpace=wrap;align=center;gradientColor=none;" vertex="1" parent="1">
          <mxGeometry x="790" y="180" width="280" height="250" as="geometry" />
        </mxCell>
        <mxCell id="D6d2pKM_3EtfKhFF-r0B-31" value="        G1-M-Videos&#xa;&#xa;• video_file1.mp4&#xa;• video_file2.mp4" style="pointerEvents=1;shadow=0;dashed=0;strokeColor=#4D4D4D;fillColor=none;labelPosition=center;verticalLabelPosition=bottom;verticalAlign=top;outlineConnect=0;align=left;shape=mxgraph.office.concepts.folder;labelBackgroundColor=none;flipH=1;snapToPoint=0;labelPadding=0;overflow=visible;perimeter=rectanglePerimeter;collapsible=0;container=0;backgroundOutline=0;fontSize=12;fontColor=#1A1A1A;spacingTop=-20;" vertex="1" parent="1">
          <mxGeometry x="805" y="220" width="20" height="15" as="geometry" />
        </mxCell>
        <mxCell id="D6d2pKM_3EtfKhFF-r0B-32" value="        G2-M-Videos&#xa;&#xa;• video_file2.mp4&#xa;• video_file3.mp4" style="pointerEvents=1;shadow=0;dashed=0;strokeColor=#4D4D4D;fillColor=none;labelPosition=center;verticalLabelPosition=bottom;verticalAlign=top;outlineConnect=0;align=left;shape=mxgraph.office.concepts.folder;labelBackgroundColor=none;flipH=1;snapToPoint=0;labelPadding=0;overflow=visible;perimeter=rectanglePerimeter;collapsible=0;container=0;backgroundOutline=0;fontSize=12;fontColor=#1A1A1A;spacingTop=-20;" vertex="1" parent="1">
          <mxGeometry x="940" y="220" width="20" height="15" as="geometry" />
        </mxCell>
        <mxCell id="D6d2pKM_3EtfKhFF-r0B-33" value="" style="group" vertex="1" connectable="0" parent="1">
          <mxGeometry x="490" y="210" width="160" height="200" as="geometry" />
        </mxCell>
        <mxCell id="D6d2pKM_3EtfKhFF-r0B-25" value="Video Collection" style="fillColor=#ffffff;strokeColor=#4D4D4D;verticalAlign=top;fontStyle=1;fontColor=#1A1A1A;rounded=0;whiteSpace=wrap;align=center;gradientColor=none;" vertex="1" parent="D6d2pKM_3EtfKhFF-r0B-33">
          <mxGeometry width="160" height="200" as="geometry" />
        </mxCell>
        <mxCell id="D6d2pKM_3EtfKhFF-r0B-26" value="        Group 1&#xa;&#xa;• video_file1.mp4&#xa;• video_file2.mp4&#xa;• video_file3.mp4" style="pointerEvents=1;shadow=0;dashed=0;strokeColor=#4D4D4D;fillColor=none;labelPosition=center;verticalLabelPosition=bottom;verticalAlign=top;outlineConnect=0;align=left;shape=mxgraph.office.concepts.folder;labelBackgroundColor=none;flipH=1;snapToPoint=0;labelPadding=0;overflow=visible;perimeter=rectanglePerimeter;collapsible=0;container=0;backgroundOutline=0;fontSize=12;fontColor=#1A1A1A;spacingTop=-20;" vertex="1" parent="D6d2pKM_3EtfKhFF-r0B-33">
          <mxGeometry x="15" y="40" width="20" height="15" as="geometry" />
        </mxCell>
        <mxCell id="D6d2pKM_3EtfKhFF-r0B-27" value="        Group 2&#xa;&#xa;• video_file1.mp4&#xa;• video_file2.mp4&#xa;• video_file3.mp4" style="pointerEvents=1;shadow=0;dashed=0;strokeColor=#4D4D4D;fillColor=none;labelPosition=center;verticalLabelPosition=bottom;verticalAlign=top;outlineConnect=0;align=left;shape=mxgraph.office.concepts.folder;labelBackgroundColor=none;flipH=1;snapToPoint=0;labelPadding=0;overflow=visible;perimeter=rectanglePerimeter;collapsible=0;container=0;backgroundOutline=0;fontSize=12;fontColor=#1A1A1A;spacingTop=-20;" vertex="1" parent="D6d2pKM_3EtfKhFF-r0B-33">
          <mxGeometry x="15" y="120" width="20" height="15" as="geometry" />
        </mxCell>
        <mxCell id="D6d2pKM_3EtfKhFF-r0B-34" value="        G1-S1-Videos&#xa;&#xa;• video_file2.mp4&#xa;• video_file4.mp4" style="pointerEvents=1;shadow=0;dashed=0;strokeColor=#4D4D4D;fillColor=none;labelPosition=center;verticalLabelPosition=bottom;verticalAlign=top;outlineConnect=0;align=left;shape=mxgraph.office.concepts.folder;labelBackgroundColor=none;flipH=1;snapToPoint=0;labelPadding=0;overflow=visible;perimeter=rectanglePerimeter;collapsible=0;container=0;backgroundOutline=0;fontSize=12;fontColor=#1A1A1A;spacingTop=-20;" vertex="1" parent="1">
          <mxGeometry x="804" y="290" width="20" height="15" as="geometry" />
        </mxCell>
        <mxCell id="D6d2pKM_3EtfKhFF-r0B-35" value="        G2-S1-Videos&#xa;&#xa;• video_file5.mp4&#xa;• video_file3.mp4" style="pointerEvents=1;shadow=0;dashed=0;strokeColor=#4D4D4D;fillColor=none;labelPosition=center;verticalLabelPosition=bottom;verticalAlign=top;outlineConnect=0;align=left;shape=mxgraph.office.concepts.folder;labelBackgroundColor=none;flipH=1;snapToPoint=0;labelPadding=0;overflow=visible;perimeter=rectanglePerimeter;collapsible=0;container=0;backgroundOutline=0;fontSize=12;fontColor=#1A1A1A;spacingTop=-20;" vertex="1" parent="1">
          <mxGeometry x="940" y="290" width="20" height="15" as="geometry" />
        </mxCell>
        <mxCell id="D6d2pKM_3EtfKhFF-r0B-36" value="        G1-S2-Videos&#xa;&#xa;• video_file1.mp4&#xa;• video_file2.mp4" style="pointerEvents=1;shadow=0;dashed=0;strokeColor=#4D4D4D;fillColor=none;labelPosition=center;verticalLabelPosition=bottom;verticalAlign=top;outlineConnect=0;align=left;shape=mxgraph.office.concepts.folder;labelBackgroundColor=none;flipH=1;snapToPoint=0;labelPadding=0;overflow=visible;perimeter=rectanglePerimeter;collapsible=0;container=0;backgroundOutline=0;fontSize=12;fontColor=#1A1A1A;spacingTop=-20;" vertex="1" parent="1">
          <mxGeometry x="805" y="360" width="20" height="15" as="geometry" />
        </mxCell>
        <mxCell id="D6d2pKM_3EtfKhFF-r0B-37" value="        G2-S2-Videos&#xa;&#xa;• video_file2.mp4&#xa;• video_file7.mp4" style="pointerEvents=1;shadow=0;dashed=0;strokeColor=#4D4D4D;fillColor=none;labelPosition=center;verticalLabelPosition=bottom;verticalAlign=top;outlineConnect=0;align=left;shape=mxgraph.office.concepts.folder;labelBackgroundColor=none;flipH=1;snapToPoint=0;labelPadding=0;overflow=visible;perimeter=rectanglePerimeter;collapsible=0;container=0;backgroundOutline=0;fontSize=12;fontColor=#1A1A1A;spacingTop=-20;" vertex="1" parent="1">
          <mxGeometry x="940" y="360" width="20" height="15" as="geometry" />
        </mxCell>
      </root>
    </mxGraphModel>
  </diagram>
</mxfile>
